# xmcd CD database file
#
# Track frame offsets:
#	150
#	29335
#	57182
#	86997
#	116367
#	150482
#	195705
#
# Disc length: 2793 seconds
#
# Revision: 0
# Processed by: cddbd v1.5.1PL0 Copyright (c) Steve Scherf et al.
# Submitted via: CDex 1.51
#
DISCID=530ae707
DTITLE=Buddy De Franco - The Complete Verve Recordings of The Buddy De Franco Quartet/Quintet with Sonny Clark CD2
DYEAR=1900
DGENRE=Jazz
TTITLE0=Mine
TTITLE1=You Go To My Head
TTITLE2=Gerry's Tune
TTITLE3=Now's The Time
TTITLE4=Autumn Leaves
TTITLE5=Titoro (Long Version)
TTITLE6=Titoro (Sort Version
EXTD=
EXTT0=
EXTT1=
EXTT2=
EXTT3=
EXTT4=
EXTT5=
EXTT6=
PLAYORDER=
